<svg width="1200" height="700" viewBox="0 0 1200 700" fill="none" xmlns="http://www.w3.org/2000/svg">
  <rect width="1200" height="700" rx="24" fill="#0A0F1A"/>
  <rect x="80" y="90" width="1040" height="520" rx="22" fill="#111827" stroke="#1F2937"/>
  <rect x="130" y="170" width="300" height="190" rx="16" fill="#0F172A" stroke="#334155"/>
  <path d="M130 220H430" stroke="#334155" stroke-width="2"/>
  <rect x="490" y="170" width="290" height="190" rx="16" fill="#0F172A" stroke="#334155"/>
  <rect x="840" y="170" width="230" height="190" rx="16" fill="#0F172A" stroke="#334155"/>
  <rect x="130" y="420" width="940" height="140" rx="16" fill="#0F172A" stroke="#334155"/>
  <rect x="180" y="210" width="90" height="70" rx="10" fill="#8A6A2B"/>
  <rect x="295" y="210" width="90" height="70" rx="10" fill="#6E5522"/>
  <circle cx="635" cy="265" r="50" fill="#59441B"/>
  <path d="M635 240V290M610 265H660" stroke="#D4AF37" stroke-width="6" stroke-linecap="round"/>
  <rect x="885" y="220" width="140" height="90" rx="12" fill="#4A3815"/>
  <path d="M955 240C973 240 987 255 987 273V281H923V273C923 255 937 240 955 240Z" stroke="#D4AF37" stroke-width="4"/>
  <rect x="941" y="281" width="28" height="28" rx="8" fill="#D4AF37"/>
</svg>
