<svg width="1200" height="700" viewBox="0 0 1200 700" fill="none" xmlns="http://www.w3.org/2000/svg">
  <rect width="1200" height="700" rx="24" fill="#0B1220"/>
  <rect x="60" y="60" width="1080" height="580" rx="20" fill="#111827" stroke="#1F2937"/>
  <rect x="110" y="120" width="350" height="200" rx="14" fill="#0F172A" stroke="#334155"/>
  <rect x="490" y="120" width="280" height="90" rx="12" fill="#0F172A" stroke="#334155"/>
  <rect x="490" y="230" width="280" height="90" rx="12" fill="#0F172A" stroke="#334155"/>
  <rect x="800" y="120" width="290" height="200" rx="14" fill="#0F172A" stroke="#334155"/>
  <path d="M140 260L190 210L240 240L300 170L360 230L430 140" stroke="#D4AF37" stroke-width="5"/>
  <rect x="110" y="360" width="980" height="220" rx="14" fill="#0F172A" stroke="#334155"/>
  <rect x="150" y="410" width="180" height="20" rx="8" fill="#6E5522"/>
  <rect x="350" y="410" width="220" height="20" rx="8" fill="#59441B"/>
  <rect x="590" y="410" width="160" height="20" rx="8" fill="#6E5522"/>
  <rect x="770" y="410" width="260" height="20" rx="8" fill="#59441B"/>
</svg>
