<svg width="1200" height="700" viewBox="0 0 1200 700" fill="none" xmlns="http://www.w3.org/2000/svg">
  <rect width="1200" height="700" rx="24" fill="#0B1220"/>
  <rect x="70" y="80" width="1060" height="540" rx="20" fill="#111827" stroke="#1F2937"/>
  <rect x="130" y="160" width="250" height="380" rx="16" fill="#0F172A" stroke="#334155"/>
  <rect x="470" y="160" width="250" height="380" rx="16" fill="#0F172A" stroke="#334155"/>
  <rect x="810" y="160" width="250" height="380" rx="16" fill="#0F172A" stroke="#334155"/>
  <text x="195" y="220" fill="#F1C75B" font-size="24" font-family="Arial">Queue</text>
  <text x="515" y="220" fill="#F1C75B" font-size="24" font-family="Arial">Process</text>
  <text x="870" y="220" fill="#F1C75B" font-size="24" font-family="Arial">Exports</text>
  <path d="M380 350H470" stroke="#D4AF37" stroke-width="5"/>
  <path d="M720 350H810" stroke="#D4AF37" stroke-width="5"/>
  <rect x="180" y="270" width="150" height="24" rx="8" fill="#6E5522"/>
  <rect x="180" y="315" width="150" height="24" rx="8" fill="#59441B"/>
  <rect x="180" y="360" width="150" height="24" rx="8" fill="#6E5522"/>
  <rect x="520" y="290" width="150" height="24" rx="8" fill="#59441B"/>
  <rect x="520" y="335" width="150" height="24" rx="8" fill="#6E5522"/>
  <rect x="860" y="290" width="150" height="90" rx="10" fill="#8A6A2B"/>
</svg>
