<svg width="1200" height="700" viewBox="0 0 1200 700" fill="none" xmlns="http://www.w3.org/2000/svg">
  <rect width="1200" height="700" rx="24" fill="#0A1020"/>
  <rect x="90" y="80" width="1020" height="540" rx="20" fill="#111827" stroke="#1F2937"/>
  <rect x="140" y="130" width="920" height="120" rx="14" fill="#0F172A" stroke="#334155"/>
  <rect x="140" y="280" width="560" height="290" rx="14" fill="#0F172A" stroke="#334155"/>
  <rect x="730" y="280" width="330" height="290" rx="14" fill="#0F172A" stroke="#334155"/>
  <rect x="180" y="170" width="240" height="18" rx="8" fill="#D4AF37"/>
  <rect x="180" y="205" width="180" height="14" rx="7" fill="#6E5522"/>
  <rect x="180" y="320" width="420" height="26" rx="10" fill="#59441B"/>
  <rect x="180" y="365" width="380" height="16" rx="8" fill="#6E5522"/>
  <rect x="180" y="400" width="280" height="46" rx="18" fill="#D4AF37"/>
  <rect x="770" y="320" width="250" height="20" rx="8" fill="#6E5522"/>
  <rect x="770" y="355" width="210" height="20" rx="8" fill="#59441B"/>
  <rect x="770" y="390" width="230" height="20" rx="8" fill="#6E5522"/>
  <path d="M770 500C810 450 880 430 940 450C980 463 1000 490 1020 530" stroke="#D4AF37" stroke-width="5"/>
</svg>
